# xmcd
#
# Track frame offsets: 
#        150
#        11953
#        22666
#        36429
#        49936
#        63518
#        76195
#        87331
#        101361
#        113828
#        125706
#        140879
#        153481
#        167031
#        181880
#        190538
#        202328
#        218128
#        232286
#        242228
#        253173
#        266681
#        277541
#
# Disc length: 3953 seconds
#
# Revision: 0
# Processed by: cddbd v1.5.2PL0 Copyright (c) Steve Scherf et al.
# Submitted via: ExactAudioCopy v0.99pb5
#
DISCID=4f0f6f17
DTITLE=Dusty Springfield - CD01 Goin' Back - The Hit Singles
DYEAR=2008
DGENRE=Country
TTITLE0=I Only Want To Be With You
TTITLE1=Little By Little
TTITLE2=All Cried Out
TTITLE3=Losing You
TTITLE4=I Just Don't Know Waht To Do With Myself
TTITLE5=You Don't Have To Say You Love Me
TTITLE6=I'll try Anything
TTITLE7=Give Me Time
TTITLE8=How Can I Be Sure?
TTITLE9=your Hurtin' Kinda' Love
TTITLE10=All  See Is You
TTITLE11=In The Middle Of Nowhere
TTITLE12=Some Of Your Lovin'
TTITLE13=I Will Come To You
TTITLE14=Stay Awhile
TTITLE15=Island Of Dreams
TTITLE16=Goin' Back
TTITLE17=I Close My Eyes And Count To Ten
TTITLE18=What's It Gonna Be
TTITLE19=A Brand New Me
TTITLE20=Am I The Same Girl?
TTITLE21=Son Of A Preacher Man
TTITLE22=What Have I Done To Deserve This (Pet Shop Boys)
EXTD=
EXTT0=
EXTT1=
EXTT2=
EXTT3=
EXTT4=
EXTT5=
EXTT6=
EXTT7=
EXTT8=
EXTT9=
EXTT10=
EXTT11=
EXTT12=
EXTT13=
EXTT14=
EXTT15=
EXTT16=
EXTT17=
EXTT18=
EXTT19=
EXTT20=
EXTT21=
EXTT22=
PLAYORDER=
